<?xml version="1.0" encoding="utf-8"?>
<!-- Generator: Adobe Illustrator 19.2.0, SVG Export Plug-In . SVG Version: 6.00 Build 0)  -->
<svg version="1.1" id="Layer_1" xmlns="http://www.w3.org/2000/svg" xmlns:xlink="http://www.w3.org/1999/xlink" x="0px" y="0px"
	 viewBox="0 0 512 512" style="enable-background:new 0 0 512 512;" xml:space="preserve">
<g>
	<path d="M128,448h256c0-160-96-160-96-192s96-32,96-192H128c0,160,96,160,96,192S128,288,128,448z M176,160h160
		c-20.3,41.7-72,56.3-72,78.7c0,18.3,0,41.3,0,73.3c0,46,88,104,88,104H160c0,0,88-57.5,88-104c0-32,0-56.7,0-73.3
		C248,216.3,197,201.7,176,160z"/>
	<rect x="112" y="464" width="288" height="16"/>
	<rect x="112" y="32" width="288" height="16"/>
</g>
</svg>
