<?xml version="1.0" encoding="utf-8"?>
<!-- Generator: Adobe Illustrator 22.0.1, SVG Export Plug-In . SVG Version: 6.00 Build 0)  -->
<svg version="1.1" id="Layer_1" xmlns="http://www.w3.org/2000/svg" xmlns:xlink="http://www.w3.org/1999/xlink" x="0px" y="0px"
	 viewBox="0 0 512 512" style="enable-background:new 0 0 512 512;" xml:space="preserve">
<g>
	<path d="M246.7,145.6c-2.2-1.1-4.6-1.6-6.9-1.6c-3.6,0-7.1,1.2-10,3.5L164.7,200H112c-8.8,0-16,7.2-16,16v80c0,8.8,7.2,16,16,16
		h52.7l65.1,52.5c2.9,2.3,6.4,3.5,10,3.5c2.3,0,4.7-0.5,6.9-1.6c5.5-2.7,9.1-8.3,9.1-14.4V160C255.8,153.8,252.3,148.2,246.7,145.6z
		"/>
	<path d="M416,256C416,256,416,256,416,256c0-43.7-16.6-84.7-46.8-115.4c-4.6-4.7-12.2-4.8-17-0.1c-4.7,4.7-4.8,12.3-0.1,17
		c25.7,26.2,39.9,61.2,39.9,98.5c0,0,0,0,0,0c0,0,0,0,0,0c0,37.3-14.2,72.3-39.9,98.5c-4.6,4.7-4.6,12.4,0.1,17
		c2.3,2.3,5.4,3.5,8.4,3.5c3.1,0,6.2-1.2,8.5-3.6C399.4,340.7,416,299.7,416,256C416,256,416,256,416,256z"/>
	<path d="M318.7,182.6c-4.6-4.7-12.2-4.8-17-0.1c-4.7,4.7-4.8,12.3-0.1,17c14.8,15,23,35.1,23,56.6c0,0,0,0,0,0c0,0,0,0,0,0
		c0,21.4-8.2,41.5-23,56.6c-4.6,4.7-4.6,12.3,0.1,17c2.3,2.3,5.4,3.5,8.4,3.5c3.1,0,6.2-1.2,8.5-3.6c19.3-19.6,29.9-45.6,29.9-73.4
		c0,0,0,0,0,0c0,0,0,0,0,0C348.6,228.2,338,202.1,318.7,182.6z"/>
</g>
</svg>
