<?xml version="1.0" encoding="utf-8"?>
<!-- Generator: Adobe Illustrator 22.0.1, SVG Export Plug-In . SVG Version: 6.00 Build 0)  -->
<svg version="1.1" id="Layer_1" xmlns="http://www.w3.org/2000/svg" xmlns:xlink="http://www.w3.org/1999/xlink" x="0px" y="0px"
	 viewBox="0 0 512 512" style="enable-background:new 0 0 512 512;" xml:space="preserve">
<g>
	<path d="M452.1,49L52.3,265.3c-6,3.3-5.6,12.1,0.6,14.9l74.4,28.1c2.8,1.3,6.2,0.8,8.5-1.3l257.7-194.2c4.8-4.3,14.6,1.3,10.5,6.4
		L236,345c-4,6-6,11-7,18s-8.7,69.2-8.7,69.2c-0.1,0.9-0.2,1.8,0,2.7c0.9,6.8,8.2,9.4,12.5,3.3l34.5-47.2c2.6-3.7,7.7-4.5,11.3-1.9
		l91.2,73.3c4.7,3.5,11.4,0.9,12.6-4.9l81.4-399.5C465.3,51.2,458.2,45.7,452.1,49z"/>
	<path d="M371.4,139.7L159.7,317c-5,4.2-6.9,10.9-4.9,17.1L191.7,450c1,4.8,7.9,4.1,8-0.8l6.7-97.2c0.5-6.7,3-13,7.3-18.2
		l160.6-191.2C375.9,140.7,373.2,138,371.4,139.7z"/>
</g>
</svg>
