<?xml version="1.0" encoding="utf-8"?>
<!-- Generator: Adobe Illustrator 19.2.0, SVG Export Plug-In . SVG Version: 6.00 Build 0)  -->
<svg version="1.1" id="Layer_1" xmlns="http://www.w3.org/2000/svg" xmlns:xlink="http://www.w3.org/1999/xlink" x="0px" y="0px"
	 viewBox="0 0 512 512" style="enable-background:new 0 0 512 512;" xml:space="preserve">
<g>
	<path d="M384,155.5V112h32V48H96v64h32v43.5c0,42.8,25.4,80.2,63.3,100.5c-37.8,20.2-63.3,57.7-63.3,100.5V400H96v64h320v-64h-32
		v-43.5c0-42.8-25.4-80.2-63.3-100.5C358.6,235.8,384,198.3,384,155.5z M342,155.5c0,19.1-8.4,37.3-23.8,51.3
		c-10.7,9.7-23.8,16.6-38.2,20.2V285c14.4,3.6,27.5,10.5,38.2,20.2c15.3,13.9,23.8,32.2,23.8,51.3V400l0,0
		c-17-38.7-61.5-70.6-86-70.6s-69,31.9-86,70.6l0,0v-43.5c0-19.1,8.4-37.3,23.8-51.3c10.7-9.7,23.8-16.6,38.2-20.2V227
		c-14.4-3.6-27.5-10.5-38.2-20.2c-15.3-13.9-23.8-32.2-23.8-51.3V112h172V155.5z"/>
	<g>
		<path d="M256,208c29.8,0,54.9-20.4,62-48H194C201.1,187.6,226.2,208,256,208z"/>
	</g>
</g>
</svg>
